<svg width="323" height="210" viewBox="0 0 323 210" fill="none" xmlns="http://www.w3.org/2000/svg">
<path d="M24.9 210H0V-1.52588e-05H24.9V96.6H122.4V-1.52588e-05H147.3V210H122.4V99.6H24.9V210Z" fill="#5DDA80"/>
<path d="M183.246 2.39999C206.446 0.799991 226.946 -1.52588e-05 244.746 -1.52588e-05C294.146 -1.52588e-05 318.846 16.5 318.846 49.5C318.846 61.9 315.246 72.6 308.046 81.6C300.846 90.4 289.346 96.4 273.546 99.6C288.746 101.4 300.746 106 309.546 113.4C318.346 120.8 322.746 133.7 322.746 152.1C322.746 190.7 298.046 210 248.646 210H183.246V2.39999ZM208.146 207H248.646C266.446 207 279.046 202.4 286.446 193.2C294.046 183.8 297.846 169.5 297.846 150.3C297.846 131.1 294.046 118.3 286.446 111.9C278.846 105.5 267.546 102.1 252.546 101.7H208.146V207ZM244.746 2.99998C233.146 2.99998 220.946 3.69999 208.146 5.09999V98.7H252.546C280.746 97.5 294.846 81.3 294.846 50.1C294.846 34.9 290.646 23.3 282.246 15.3C273.846 7.09999 261.346 2.99998 244.746 2.99998Z" fill="#97CBA5"/>
<path d="M173 140.102C168.6 163.702 161.5 189.102 137 201.102L141 143.602C143.833 143.768 146.443 129.241 159.5 114.602C175.975 96.1299 198.265 98.428 214.426 100.094L214.5 100.102C203.333 102.935 177.4 116.502 173 140.102Z" fill="#97CBA5"/>
</svg>
