<svg width="329" height="256" viewBox="0 0 329 256" fill="none" xmlns="http://www.w3.org/2000/svg">
<path d="M26.9 210H2V-1.52588e-05H26.9V96.6H124.4V-1.52588e-05H149.3V210H124.4V99.6H26.9V210Z" fill="#5DDA80"/>
<path d="M185.246 2.39999C208.446 0.799991 228.946 -1.52588e-05 246.746 -1.52588e-05C296.146 -1.52588e-05 320.846 16.5 320.846 49.5C320.846 61.9 317.246 72.6 310.046 81.6C302.846 90.4 291.346 96.4 275.546 99.6C290.746 101.4 302.746 106 311.546 113.4C320.346 120.8 324.746 133.7 324.746 152.1C324.746 190.7 300.046 210 250.646 210H185.246V2.39999ZM210.146 207H250.646C268.446 207 281.046 202.4 288.446 193.2C296.046 183.8 299.846 169.5 299.846 150.3C299.846 131.1 296.046 118.3 288.446 111.9C280.846 105.5 269.546 102.1 254.546 101.7H210.146V207ZM246.746 2.99998C235.146 2.99998 222.946 3.69999 210.146 5.09999V98.7H254.546C282.746 97.5 296.846 81.3 296.846 50.1C296.846 34.9 292.646 23.3 284.246 15.3C275.846 7.09999 263.346 2.99998 246.746 2.99998Z" fill="#5DDA80"/>
<path d="M175 140.102C170.6 163.702 163.5 189.102 139 201.102L143 143.602C145.833 143.768 148.443 129.241 161.5 114.602C177.975 96.1299 200.265 98.428 216.426 100.094L216.5 100.102C205.333 102.935 179.4 116.502 175 140.102Z" fill="#5DDA80"/>
<path d="M6.74721 254.767H7.74721V253.767V233.292H24.3357V253.767V254.767H25.3357H30.0829H31.0829V253.767V212.918V211.918H30.0829H25.3357H24.3357V212.918V230.708H7.74721V212.918V211.918H6.74721H2H1V212.918V253.767V254.767H2H6.74721ZM66.707 227.682L66.7019 227.687C63.8794 230.609 62.5319 234.662 62.5319 239.703C62.5319 244.726 63.833 248.641 66.6268 251.232C69.3587 253.766 72.8761 255 77.0872 255C81.374 255 84.9584 253.566 87.756 250.671C90.6177 247.749 91.9857 243.696 91.9857 238.653C91.9857 233.63 90.6846 229.715 87.8908 227.124C85.1571 224.588 81.6196 223.355 77.3732 223.355C73.1203 223.355 69.5393 224.792 66.707 227.682ZM71.0881 229.381L71.0922 229.375C72.838 226.953 74.955 225.822 77.4876 225.822C80.0818 225.822 82.1144 226.812 83.6759 228.821C85.23 230.82 86.0964 234.035 86.0964 238.653C86.0964 243.196 85.1673 246.62 83.4276 249.036C81.6849 251.417 79.5681 252.533 77.03 252.533C74.4358 252.533 72.4032 251.544 70.8417 249.535C69.2867 247.534 68.4212 244.337 68.4212 239.761C68.4212 235.173 69.3525 231.754 71.0881 229.381ZM125.494 212.387L124.564 212.453V213.385V253.767V254.767H125.564H138.033C142.848 254.767 146.645 253.811 149.252 251.733C151.902 249.62 153.16 246.48 153.16 242.504C153.16 238.81 152.3 235.938 150.295 234.217C149.245 233.317 147.999 232.623 146.57 232.123C148.031 231.443 149.23 230.548 150.138 229.416L150.145 229.407C151.667 227.466 152.417 225.162 152.417 222.546C152.417 219.055 151.114 216.316 148.448 214.499C145.851 212.729 142.081 211.918 137.289 211.918C133.867 211.918 129.934 212.075 125.494 212.387ZM144.064 228.929C142.953 230.231 141.241 231.005 138.754 231.117H131.312V214.81C133.395 214.604 135.387 214.501 137.289 214.501C140.297 214.501 142.383 215.258 143.733 216.602L143.742 216.611C145.093 217.924 145.841 219.886 145.841 222.663C145.841 225.568 145.196 227.603 144.064 228.929ZM138.033 252.183H131.312V233.7H138.763C141.495 233.777 143.383 234.408 144.588 235.443C145.679 236.38 146.413 238.461 146.413 242.154C146.413 245.789 145.702 248.304 144.456 249.878L144.454 249.88C143.312 251.329 141.275 252.183 138.033 252.183ZM187.954 227.682L187.949 227.687C185.127 230.609 183.779 234.662 183.779 239.703C183.779 244.726 185.08 248.641 187.874 251.232C190.606 253.766 194.124 255 198.335 255C202.621 255 206.205 253.566 209.003 250.671C211.865 247.75 213.233 243.696 213.233 238.653C213.233 233.63 211.932 229.715 209.138 227.124C206.405 224.588 202.867 223.355 198.621 223.355C194.368 223.355 190.787 224.792 187.954 227.682ZM192.336 229.381L192.34 229.375C194.085 226.953 196.202 225.822 198.735 225.822C201.329 225.822 203.362 226.812 204.923 228.821C206.477 230.82 207.344 234.035 207.344 238.653C207.344 243.197 206.414 246.621 204.674 249.037C202.932 251.417 200.815 252.533 198.277 252.533C195.683 252.533 193.651 251.544 192.089 249.535C190.534 247.534 189.669 244.337 189.669 239.761C189.669 235.173 190.6 231.754 192.336 229.381ZM248.271 227.682L248.266 227.687C245.443 230.609 244.096 234.662 244.096 239.703C244.096 244.726 245.397 248.641 248.191 251.232C250.923 253.766 254.44 255 258.651 255C262.938 255 266.523 253.565 269.321 250.67C272.182 247.749 273.55 243.695 273.55 238.653C273.55 233.63 272.249 229.715 269.455 227.124C266.721 224.588 263.184 223.355 258.937 223.355C254.684 223.355 251.103 224.792 248.271 227.682ZM252.652 229.381L252.656 229.375C254.402 226.953 256.519 225.822 259.052 225.822C261.646 225.822 263.678 226.812 265.24 228.821C266.794 230.82 267.66 234.035 267.66 238.653C267.66 243.197 266.731 246.621 264.991 249.037C263.248 251.417 261.132 252.533 258.594 252.533C256 252.533 253.967 251.544 252.406 249.535C250.851 247.534 249.985 244.337 249.985 239.761C249.985 235.173 250.916 231.754 252.652 229.381ZM309.871 210V209H308.871H304.867H303.867V210V253.767V254.767H304.867H308.871H309.871V253.767V240.072L310.317 239.549L320.164 254.321L320.461 254.767H320.996H325H326.869L325.832 253.212L313.958 235.406L322.781 225.244L324.218 223.589H322.026H321.454H320.998L320.699 223.933L309.871 236.387V210Z" fill="#5DDA80" stroke="#5DDA80" stroke-width="2"/>
</svg>
